<svg width="182" height="96" viewBox="0 0 182 96" fill="none" xmlns="http://www.w3.org/2000/svg">
<ellipse cx="91" cy="48" rx="91" ry="48" fill="#345F00"/>
<ellipse cx="90.8162" cy="48.2199" rx="86.739" ry="43.5222" fill="white"/>
<ellipse cx="90.8162" cy="48.22" rx="83.5" ry="41" fill="#345F00"/>
<path d="M85.4456 33.2436C85.4246 33.2226 85.4141 33.1833 85.4141 33.1256C85.4141 33.0521 85.4246 33.0154 85.4456 33.0154C85.4928 33.0154 85.5557 33.0102 85.6344 32.9997C85.713 32.984 85.7865 32.963 85.8546 32.9368C85.9228 32.9105 85.9621 32.8843 85.9726 32.8581C85.9936 32.7847 86.0067 32.6903 86.012 32.5749C86.0225 32.4595 86.0277 32.3205 86.0277 32.158V29.3102C86.0277 28.854 86.0041 28.5839 85.9569 28.5C85.9202 28.4213 85.637 28.382 85.1073 28.382C84.908 28.382 84.7533 28.4003 84.6432 28.437C84.533 28.4685 84.4491 28.534 84.3914 28.6337C84.3337 28.7333 84.2787 28.8828 84.2262 29.0821C84.2157 29.1083 84.1895 29.1214 84.1476 29.1214C84.0584 29.1214 83.9955 29.1031 83.9588 29.0664L84.1082 27.9414C84.2236 27.9676 84.3259 27.9886 84.415 28.0044C84.5042 28.0201 84.5829 28.028 84.651 28.028C85.0286 28.028 85.3617 28.0332 85.6501 28.0437C85.9385 28.0542 86.1798 28.0594 86.3738 28.0594C86.7777 28.0594 87.1238 28.0542 87.4122 28.0437C87.7059 28.0332 87.9367 28.028 88.1045 28.028C88.1727 28.028 88.2514 28.0201 88.3405 28.0044C88.4297 27.9886 88.5319 27.9676 88.6473 27.9414L88.7968 29.0664C88.7601 29.1031 88.6971 29.1214 88.608 29.1214C88.566 29.1214 88.5398 29.1083 88.5293 29.0821C88.4821 28.8828 88.427 28.7333 88.3641 28.6337C88.3064 28.534 88.2225 28.4685 88.1124 28.437C88.0022 28.4003 87.8475 28.382 87.6482 28.382C87.0976 28.382 86.8091 28.4213 86.7829 28.5C86.7357 28.6625 86.7121 28.9248 86.7121 29.2866V32.1265C86.7121 32.4307 86.7357 32.6745 86.7829 32.8581C86.7934 32.8791 86.8327 32.9027 86.9009 32.9289C86.9691 32.9551 87.0425 32.9761 87.1212 32.9918C87.1998 33.0076 87.2549 33.0154 87.2864 33.0154C87.3074 33.0154 87.3178 33.0548 87.3178 33.1334C87.3178 33.1649 87.3126 33.2016 87.3021 33.2436C87.0399 33.2331 86.8327 33.2252 86.6806 33.22C86.5285 33.2095 86.4315 33.2042 86.3896 33.2042L85.4456 33.2436ZM89.2512 33.2436C89.2302 33.2226 89.2197 33.1833 89.2197 33.1256C89.2197 33.0521 89.2302 33.0154 89.2512 33.0154C89.2984 33.0154 89.3613 33.0102 89.44 32.9997C89.5186 32.984 89.592 32.963 89.6602 32.9368C89.7284 32.9105 89.7677 32.8843 89.7782 32.8581C89.7992 32.7847 89.8123 32.6903 89.8176 32.5749C89.828 32.4595 89.8333 32.3205 89.8333 32.158V29.1057C89.8333 28.9431 89.828 28.8041 89.8176 28.6888C89.8123 28.5681 89.7992 28.4737 89.7782 28.4056C89.7677 28.3741 89.7284 28.3479 89.6602 28.3269C89.592 28.3007 89.5186 28.2797 89.44 28.264C89.3613 28.2482 89.2984 28.2404 89.2512 28.2404C89.2302 28.2404 89.2197 28.2063 89.2197 28.1381C89.2197 28.0752 89.2302 28.0332 89.2512 28.0122C89.2984 28.0122 89.377 28.0175 89.4872 28.028C89.6025 28.0332 89.7258 28.0411 89.8569 28.0516C89.988 28.0568 90.1008 28.0594 90.1952 28.0594C90.363 28.0594 90.5308 28.0542 90.6986 28.0437C90.8664 28.028 91.0028 28.0175 91.1077 28.0122C91.1182 28.0332 91.1208 28.0778 91.1156 28.146C91.1156 28.2089 91.1077 28.2404 91.092 28.2404C91.0605 28.2404 91.0054 28.2508 90.9268 28.2718C90.8481 28.2876 90.7747 28.3085 90.7065 28.3348C90.6383 28.3557 90.599 28.3793 90.5885 28.4056C90.5413 28.5839 90.5177 28.8277 90.5177 29.1372V30.3093L90.5334 30.3329C90.7904 30.3381 91.0185 30.3434 91.2178 30.3486C91.4171 30.3486 91.5876 30.3486 91.7292 30.3486C91.8813 30.3486 92.0543 30.3486 92.2484 30.3486C92.4424 30.3434 92.6574 30.3381 92.8934 30.3329C92.9039 30.3224 92.9092 30.3119 92.9092 30.3014V29.1057C92.9092 28.9431 92.9039 28.8041 92.8934 28.6888C92.8882 28.5681 92.8751 28.4737 92.8541 28.4056C92.8436 28.3741 92.8043 28.3479 92.7361 28.3269C92.6679 28.3007 92.5945 28.2797 92.5158 28.264C92.4372 28.2482 92.3742 28.2404 92.327 28.2404C92.3061 28.2404 92.2956 28.2063 92.2956 28.1381C92.2956 28.0752 92.3061 28.0332 92.327 28.0122C92.369 28.0122 92.4477 28.0175 92.563 28.028C92.6784 28.0332 92.8017 28.0411 92.9328 28.0516C93.0691 28.0568 93.1845 28.0594 93.2789 28.0594C93.4467 28.0594 93.6119 28.0542 93.7745 28.0437C93.9371 28.028 94.0708 28.0175 94.1757 28.0122C94.1862 28.0542 94.1914 28.0935 94.1914 28.1302C94.1914 28.2036 94.1809 28.2404 94.16 28.2404C94.1285 28.2404 94.0734 28.2508 93.9948 28.2718C93.9161 28.2876 93.8427 28.3085 93.7745 28.3348C93.7063 28.3557 93.667 28.3793 93.6565 28.4056C93.6355 28.4895 93.6198 28.5917 93.6093 28.7124C93.5988 28.833 93.5936 28.9746 93.5936 29.1372V32.1265C93.5936 32.2891 93.5988 32.4307 93.6093 32.5513C93.6198 32.6719 93.6355 32.7742 93.6565 32.8581C93.667 32.8791 93.7063 32.9027 93.7745 32.9289C93.8427 32.9551 93.9161 32.9761 93.9948 32.9918C94.0734 33.0076 94.1285 33.0154 94.16 33.0154C94.1809 33.0154 94.1914 33.0548 94.1914 33.1334C94.1914 33.1649 94.1862 33.2016 94.1757 33.2436C93.9135 33.2331 93.7063 33.2252 93.5542 33.22C93.4074 33.2095 93.3156 33.2042 93.2789 33.2042L92.327 33.2436C92.3061 33.2226 92.2956 33.178 92.2956 33.1098C92.2956 33.0469 92.3061 33.0154 92.327 33.0154C92.3742 33.0154 92.4372 33.0102 92.5158 32.9997C92.5945 32.984 92.6679 32.963 92.7361 32.9368C92.8043 32.9105 92.8436 32.8843 92.8541 32.8581C92.8751 32.7847 92.8882 32.6903 92.8934 32.5749C92.9039 32.4595 92.9092 32.3205 92.9092 32.158V30.7734L92.8934 30.742C92.6469 30.7367 92.4267 30.7341 92.2326 30.7341C92.0386 30.7289 91.8708 30.7262 91.7292 30.7262C90.9215 30.7262 90.5177 30.7393 90.5177 30.7656V32.1265C90.5177 32.4307 90.5413 32.6745 90.5885 32.8581C90.599 32.8791 90.6383 32.9027 90.7065 32.9289C90.7747 32.9551 90.8481 32.9761 90.9268 32.9918C91.0054 33.0076 91.0605 33.0154 91.092 33.0154C91.1077 33.0154 91.1156 33.0469 91.1156 33.1098C91.1208 33.1728 91.1182 33.2173 91.1077 33.2436C90.8455 33.2331 90.6383 33.2252 90.4862 33.22C90.3341 33.2095 90.2371 33.2042 90.1952 33.2042L89.2512 33.2436ZM98.296 33.2514C98.1648 33.2514 97.9918 33.2488 97.7768 33.2436C97.567 33.2436 97.3179 33.2409 97.0294 33.2357C96.741 33.2305 96.4788 33.2252 96.2428 33.22C96.0068 33.22 95.797 33.22 95.6134 33.22L94.6615 33.2436C94.6458 33.2278 94.6379 33.1859 94.6379 33.1177C94.6379 33.0495 94.6458 33.0154 94.6615 33.0154C94.7087 33.0154 94.7717 33.0076 94.8503 32.9918C94.929 32.9709 95.0024 32.9473 95.0706 32.921C95.144 32.8948 95.1886 32.866 95.2044 32.8345C95.2411 32.7768 95.2594 32.5303 95.2594 32.095V29.1214C95.2594 28.9693 95.2542 28.8356 95.2437 28.7202C95.2384 28.6048 95.2253 28.5131 95.2044 28.4449C95.1939 28.4134 95.1519 28.3846 95.0785 28.3584C95.0103 28.3321 94.9343 28.3112 94.8503 28.2954C94.7717 28.2797 94.7087 28.2718 94.6615 28.2718C94.6406 28.2718 94.6301 28.2404 94.6301 28.1774C94.6301 28.1092 94.6406 28.0647 94.6615 28.0437C94.7979 28.0489 94.9421 28.0542 95.0942 28.0594C95.2516 28.0594 95.4194 28.0594 95.5977 28.0594C95.7183 28.0594 95.8809 28.0568 96.0854 28.0516C96.29 28.0463 96.5364 28.0384 96.8249 28.028C97.1186 28.0175 97.3729 28.0096 97.588 28.0044C97.8082 27.9991 97.9918 27.9965 98.1386 27.9965C98.1491 28.0699 98.1648 28.1591 98.1858 28.264C98.2068 28.3636 98.233 28.4737 98.2645 28.5944C98.2907 28.7202 98.3117 28.8225 98.3274 28.9012C98.3484 28.9798 98.3615 29.0349 98.3668 29.0664C98.3405 29.0926 98.2933 29.1057 98.2252 29.1057C98.157 29.1057 98.1203 29.0873 98.115 29.0506C98.0364 28.7622 97.9262 28.5786 97.7846 28.5C97.643 28.416 97.449 28.3741 97.2025 28.3741H96.6754C96.2192 28.3741 95.9884 28.4082 95.9832 28.4764C95.9727 28.5393 95.9622 28.6258 95.9517 28.736C95.9464 28.8461 95.9438 28.9798 95.9438 29.1372V30.3958C95.9438 30.4273 96.0566 30.443 96.2821 30.443H96.699C96.8773 30.443 96.998 30.443 97.0609 30.443C97.1238 30.4378 97.1684 30.4299 97.1946 30.4194C97.2261 30.4089 97.2838 30.3932 97.3677 30.3722C97.4201 30.3617 97.4595 30.3014 97.4857 30.1913C97.5172 30.0759 97.5434 29.9815 97.5644 29.9081C97.5696 29.8714 97.6089 29.853 97.6824 29.853C97.7453 29.853 97.7899 29.8661 97.8161 29.8924V31.3792C97.7951 31.4001 97.7532 31.4106 97.6902 31.4106C97.622 31.4106 97.5801 31.3897 97.5644 31.3477C97.5434 31.2743 97.525 31.2113 97.5093 31.1589C97.4936 31.1065 97.4804 31.0619 97.47 31.0252C97.4437 30.9517 97.4228 30.9098 97.407 30.8993C97.3965 30.8888 97.3756 30.8731 97.3441 30.8521C97.2707 30.8101 96.9927 30.7892 96.5102 30.7892C96.1326 30.7892 95.9438 30.8128 95.9438 30.86V32.0793C95.9438 32.4202 95.9674 32.6588 96.0146 32.7952C96.0304 32.8476 96.2087 32.8738 96.5496 32.8738H96.9272C97.4096 32.8738 97.74 32.8293 97.9184 32.7401C97.997 32.6981 98.0836 32.6064 98.178 32.4648C98.2776 32.3179 98.3563 32.1449 98.414 31.9456C98.4244 31.9141 98.4612 31.8984 98.5241 31.8984C98.6237 31.8984 98.6893 31.9141 98.7208 31.9456C98.705 31.9875 98.6788 32.0531 98.6421 32.1422C98.6106 32.2261 98.5792 32.3127 98.5477 32.4018C98.5162 32.491 98.49 32.567 98.469 32.63C98.4376 32.7244 98.4035 32.8319 98.3668 32.9525C98.33 33.0731 98.3064 33.1728 98.296 33.2514Z" fill="white"/>
<path d="M27.4285 54.1133C27.3786 54.0635 27.3537 53.914 27.3537 53.6649C27.3537 53.449 27.3786 53.3411 27.4285 53.3411C27.5945 53.3411 27.7938 53.3161 28.0263 53.2663C28.2754 53.2165 28.5079 53.1584 28.7238 53.0919C28.9563 53.0089 29.0975 52.9176 29.1473 52.8179C29.2636 52.6352 29.3217 51.8547 29.3217 50.4763V41.0599C29.3217 40.5782 29.3051 40.1547 29.2719 39.7894C29.2553 39.424 29.2138 39.1334 29.1473 38.9175C29.1141 38.8178 28.9813 38.7265 28.7488 38.6435C28.5329 38.5604 28.292 38.494 28.0263 38.4442C27.7772 38.3944 27.5779 38.3694 27.4285 38.3694C27.362 38.3694 27.3288 38.2698 27.3288 38.0705C27.3288 37.8546 27.362 37.7134 27.4285 37.647L30.4178 37.6968C30.6669 37.6968 30.9409 37.6968 31.2399 37.6968C31.5388 37.6802 31.8543 37.6636 32.1865 37.647C32.5186 37.6304 32.8342 37.6221 33.1331 37.6221C33.4321 37.6055 33.6978 37.5972 33.9303 37.5972C34.4783 37.5972 35.0347 37.6802 35.5993 37.8463C36.164 38.0124 36.7037 38.2615 37.2186 38.5936C37.75 38.9258 38.1735 39.3991 38.489 40.0136C38.8212 40.6281 38.9872 41.3422 38.9872 42.1559C38.9872 42.6708 38.8793 43.2188 38.6634 43.8001C38.4475 44.3813 38.1237 44.9294 37.6919 45.4442C37.2767 45.9424 36.7452 46.3493 36.0975 46.6649C35.4665 46.9804 34.7357 47.1382 33.9054 47.1382C32.9753 47.1382 32.336 46.9057 31.9872 46.4407C31.8876 46.3244 31.8626 46.1334 31.9125 45.8677C31.9457 45.7847 31.9706 45.7598 31.9872 45.793C32.502 45.9757 33.0584 46.067 33.6563 46.067C34.2209 46.067 34.7274 45.9092 35.1758 45.5937C35.6408 45.2615 36.0062 44.8297 36.2719 44.2983C36.5543 43.7503 36.6954 43.1607 36.6954 42.5296C36.6954 41.3505 36.438 40.4205 35.9232 39.7396C35.4083 39.042 34.6112 38.6933 33.5317 38.6933C32.7678 38.6933 32.1865 38.7514 31.7879 38.8677C31.6384 38.8843 31.5471 39.1417 31.5139 39.6399C31.4973 40.1381 31.489 40.7941 31.489 41.6079V50.5012C31.489 51.5973 31.5554 52.3197 31.6883 52.6685C31.7547 52.8013 31.9125 52.9259 32.1616 53.0421C32.4273 53.1584 32.7096 53.2497 33.0086 53.3161C33.3075 53.366 33.5234 53.3909 33.6563 53.3909C33.7227 53.3909 33.7559 53.5071 33.7559 53.7396C33.7559 53.8559 33.7393 53.9804 33.7061 54.1133C32.8757 54.0801 32.1865 54.0552 31.6384 54.0386C31.107 54.0054 30.7167 53.9888 30.4676 53.9888L27.4285 54.1133ZM51.4747 54.1382C51.0595 54.1382 50.5115 54.1299 49.8306 54.1133C49.1663 54.1133 48.3774 54.105 47.464 54.0884C46.5506 54.0718 45.7202 54.0552 44.9729 54.0386C44.2256 54.0386 43.5613 54.0386 42.98 54.0386L39.9658 54.1133C39.9159 54.0635 39.891 53.9306 39.891 53.7147C39.891 53.4988 39.9159 53.3909 39.9658 53.3909C40.1152 53.3909 40.3145 53.366 40.5636 53.3161C40.8127 53.2497 41.0452 53.175 41.2611 53.0919C41.4936 53.0089 41.6348 52.9176 41.6846 52.8179C41.8009 52.6352 41.859 51.8547 41.859 50.4763V41.0599C41.859 40.5782 41.8424 40.1547 41.8092 39.7894C41.7926 39.424 41.7511 39.1334 41.6846 38.9175C41.6514 38.8178 41.5186 38.7265 41.286 38.6435C41.0702 38.5604 40.8293 38.494 40.5636 38.4442C40.3145 38.3944 40.1152 38.3694 39.9658 38.3694C39.8993 38.3694 39.8661 38.2698 39.8661 38.0705C39.8661 37.8546 39.8993 37.7134 39.9658 37.647C40.3975 37.6636 40.8543 37.6802 41.3359 37.6968C41.8341 37.6968 42.3655 37.6968 42.9302 37.6968C43.3122 37.6968 43.827 37.6885 44.4747 37.6719C45.1224 37.6553 45.9029 37.6304 46.8163 37.5972C47.7463 37.564 48.5518 37.5391 49.2327 37.5225C49.9302 37.5059 50.5115 37.4976 50.9765 37.4976C51.0097 37.7301 51.0595 38.0124 51.126 38.3445C51.1924 38.6601 51.2754 39.0088 51.3751 39.3908C51.4581 39.7894 51.5245 40.1132 51.5744 40.3623C51.6408 40.6114 51.6823 40.7858 51.6989 40.8855C51.6159 40.9685 51.4664 41.01 51.2505 41.01C51.0346 41.01 50.9184 40.9519 50.9018 40.8357C50.6526 39.9222 50.3039 39.341 49.8555 39.0919C49.4071 38.8261 48.7926 38.6933 48.0121 38.6933H46.343C44.8982 38.6933 44.1674 38.8012 44.1508 39.0171C44.1176 39.2164 44.0844 39.4904 44.0512 39.8392C44.0346 40.188 44.0263 40.6114 44.0263 41.1097V45.0955C44.0263 45.1951 44.3833 45.2449 45.0975 45.2449H46.4177C46.9824 45.2449 47.3644 45.2449 47.5637 45.2449C47.763 45.2283 47.9041 45.2034 47.9872 45.1702C48.0868 45.137 48.2695 45.0872 48.5352 45.0207C48.7013 44.9875 48.8258 44.7965 48.9089 44.4478C49.0085 44.0824 49.0915 43.7835 49.158 43.551C49.1746 43.4347 49.2991 43.3766 49.5316 43.3766C49.7309 43.3766 49.8721 43.4181 49.9551 43.5011V48.2094C49.8887 48.2758 49.7558 48.309 49.5566 48.309C49.3407 48.309 49.2078 48.2426 49.158 48.1097C49.0915 47.8772 49.0334 47.6779 48.9836 47.5118C48.9338 47.3458 48.8923 47.2046 48.859 47.0884C48.776 46.8559 48.7096 46.723 48.6598 46.6898C48.6265 46.6566 48.5601 46.6067 48.4605 46.5403C48.228 46.4074 47.3478 46.341 45.8199 46.341C44.6241 46.341 44.0263 46.4158 44.0263 46.5652V50.4265C44.0263 51.5059 44.101 52.2616 44.2505 52.6934C44.3003 52.8594 44.865 52.9425 45.9444 52.9425H47.1402C48.6681 52.9425 49.7143 52.8013 50.279 52.519C50.5281 52.3861 50.8021 52.0955 51.1011 51.6471C51.4166 51.1821 51.6657 50.634 51.8484 50.003C51.8816 49.9033 51.9979 49.8535 52.1971 49.8535C52.5127 49.8535 52.7203 49.9033 52.8199 50.003C52.7701 50.1358 52.6871 50.3434 52.5708 50.6257C52.4712 50.8915 52.3715 51.1655 52.2719 51.4478C52.1722 51.7301 52.0892 51.9709 52.0228 52.1702C51.9231 52.4692 51.8152 52.8096 51.6989 53.1916C51.5827 53.5736 51.5079 53.8891 51.4747 54.1382ZM58.0084 54.1133C57.942 54.0469 57.9088 53.9223 57.9088 53.7396C57.9088 53.5071 57.942 53.3909 58.0084 53.3909C58.1579 53.3909 58.3572 53.3743 58.6063 53.3411C58.8554 53.2912 59.0879 53.2248 59.3038 53.1418C59.5197 53.0587 59.6443 52.9757 59.6775 52.8927C59.7439 52.6602 59.7854 52.3612 59.802 51.9959C59.8352 51.6305 59.8518 51.1904 59.8518 50.6756V41.6577C59.8518 40.2129 59.7771 39.3576 59.6276 39.0919C59.5114 38.8428 58.6146 38.7182 56.9372 38.7182C56.3062 38.7182 55.8162 38.7763 55.4675 38.8926C55.1187 38.9922 54.853 39.1998 54.6703 39.5154C54.4876 39.8309 54.3133 40.3042 54.1472 40.9353C54.114 41.0183 54.0309 41.0599 53.8981 41.0599C53.6158 41.0599 53.4165 41.0017 53.3002 40.8855L53.7735 37.3232C54.1389 37.4062 54.4627 37.4726 54.7451 37.5225C55.0274 37.5723 55.2765 37.5972 55.4924 37.5972C56.6881 37.5972 57.7427 37.6138 58.6561 37.647C59.5695 37.6802 60.3335 37.6968 60.9479 37.6968C62.2267 37.6968 63.3228 37.6802 64.2362 37.647C65.1662 37.6138 65.897 37.5972 66.4284 37.5972C66.6443 37.5972 66.8934 37.5723 67.1757 37.5225C67.4581 37.4726 67.7819 37.4062 68.1473 37.3232L68.6206 40.8855C68.5043 41.0017 68.305 41.0599 68.0227 41.0599C67.8899 41.0599 67.8068 41.0183 67.7736 40.9353C67.6241 40.3042 67.4498 39.8309 67.2505 39.5154C67.0678 39.1998 66.8021 38.9922 66.4533 38.8926C66.1046 38.7763 65.6146 38.7182 64.9835 38.7182C63.2398 38.7182 62.3264 38.8428 62.2433 39.0919C62.0939 39.6067 62.0191 40.4371 62.0191 41.583V50.5759C62.0191 51.5392 62.0939 52.3114 62.2433 52.8927C62.2765 52.9591 62.4011 53.0338 62.617 53.1169C62.8329 53.1999 63.0654 53.2663 63.3145 53.3161C63.5636 53.366 63.738 53.3909 63.8376 53.3909C63.9041 53.3909 63.9373 53.5154 63.9373 53.7646C63.9373 53.8642 63.9207 53.9804 63.8875 54.1133C63.0571 54.0801 62.4011 54.0552 61.9195 54.0386C61.4379 54.0054 61.1306 53.9888 60.9978 53.9888L58.0084 54.1133ZM80.834 54.1382C80.4188 54.1382 79.8708 54.1299 79.1899 54.1133C78.5256 54.1133 77.7367 54.105 76.8233 54.0884C75.9099 54.0718 75.0795 54.0552 74.3322 54.0386C73.5849 54.0386 72.9206 54.0386 72.3393 54.0386L69.3251 54.1133C69.2752 54.0635 69.2503 53.9306 69.2503 53.7147C69.2503 53.4988 69.2752 53.3909 69.3251 53.3909C69.4745 53.3909 69.6738 53.366 69.9229 53.3161C70.172 53.2497 70.4046 53.175 70.6204 53.0919C70.853 53.0089 70.9941 52.9176 71.0439 52.8179C71.1602 52.6352 71.2183 51.8547 71.2183 50.4763V41.0599C71.2183 40.5782 71.2017 40.1547 71.1685 39.7894C71.1519 39.424 71.1104 39.1334 71.0439 38.9175C71.0107 38.8178 70.8779 38.7265 70.6454 38.6435C70.4295 38.5604 70.1887 38.494 69.9229 38.4442C69.6738 38.3944 69.4745 38.3694 69.3251 38.3694C69.2586 38.3694 69.2254 38.2698 69.2254 38.0705C69.2254 37.8546 69.2586 37.7134 69.3251 37.647C69.7569 37.6636 70.2136 37.6802 70.6952 37.6968C71.1934 37.6968 71.7248 37.6968 72.2895 37.6968C72.6715 37.6968 73.1863 37.6885 73.834 37.6719C74.4817 37.6553 75.2622 37.6304 76.1756 37.5972C77.1057 37.564 77.9111 37.5391 78.592 37.5225C79.2895 37.5059 79.8708 37.4976 80.3358 37.4976C80.369 37.7301 80.4188 38.0124 80.4853 38.3445C80.5517 38.6601 80.6347 39.0088 80.7344 39.3908C80.8174 39.7894 80.8839 40.1132 80.9337 40.3623C81.0001 40.6114 81.0416 40.7858 81.0582 40.8855C80.9752 40.9685 80.8257 41.01 80.6098 41.01C80.3939 41.01 80.2777 40.9519 80.2611 40.8357C80.012 39.9222 79.6632 39.341 79.2148 39.0919C78.7664 38.8261 78.1519 38.6933 77.3714 38.6933H75.7023C74.2575 38.6933 73.5268 38.8012 73.5101 39.0171C73.4769 39.2164 73.4437 39.4904 73.4105 39.8392C73.3939 40.188 73.3856 40.6114 73.3856 41.1097V45.0955C73.3856 45.1951 73.7427 45.2449 74.4568 45.2449H75.7771C76.3417 45.2449 76.7237 45.2449 76.923 45.2449C77.1223 45.2283 77.2634 45.2034 77.3465 45.1702C77.4461 45.137 77.6288 45.0872 77.8945 45.0207C78.0606 44.9875 78.1851 44.7965 78.2682 44.4478C78.3678 44.0824 78.4509 43.7835 78.5173 43.551C78.5339 43.4347 78.6585 43.3766 78.891 43.3766C79.0902 43.3766 79.2314 43.4181 79.3144 43.5011V48.2094C79.248 48.2758 79.1152 48.309 78.9159 48.309C78.7 48.309 78.5671 48.2426 78.5173 48.1097C78.4509 47.8772 78.3927 47.6779 78.3429 47.5118C78.2931 47.3458 78.2516 47.2046 78.2184 47.0884C78.1353 46.8559 78.0689 46.723 78.0191 46.6898C77.9859 46.6566 77.9194 46.6067 77.8198 46.5403C77.5873 46.4074 76.7071 46.341 75.1792 46.341C73.9835 46.341 73.3856 46.4158 73.3856 46.5652V50.4265C73.3856 51.5059 73.4603 52.2616 73.6098 52.6934C73.6596 52.8594 74.2243 52.9425 75.3038 52.9425H76.4995C78.0274 52.9425 79.0736 52.8013 79.6383 52.519C79.8874 52.3861 80.1614 52.0955 80.4604 51.6471C80.7759 51.1821 81.025 50.634 81.2077 50.003C81.2409 49.9033 81.3572 49.8535 81.5565 49.8535C81.872 49.8535 82.0796 49.9033 82.1792 50.003C82.1294 50.1358 82.0464 50.3434 81.9301 50.6257C81.8305 50.8915 81.7308 51.1655 81.6312 51.4478C81.5315 51.7301 81.4485 51.9709 81.3821 52.1702C81.2824 52.4692 81.1745 52.8096 81.0582 53.1916C80.942 53.5736 80.8672 53.8891 80.834 54.1382ZM93.0295 54.2877C92.631 54.2877 92.2075 54.2545 91.7591 54.188C91.3107 54.1382 90.937 54.0801 90.6381 54.0137C90.0236 53.8974 89.5752 53.8061 89.2929 53.7396C89.0272 53.6566 88.778 53.5985 88.5455 53.5653C88.3296 52.5356 88.1719 51.6969 88.0722 51.0492C87.9726 50.3849 87.9228 49.9033 87.9228 49.6044C87.9228 49.5047 88.0556 49.4549 88.3213 49.4549C88.6203 49.4549 88.8279 49.5297 88.9441 49.6791C89.5254 52.0706 90.9038 53.2663 93.0794 53.2663C93.9097 53.2663 94.6156 53.0172 95.1968 52.519C95.7781 52.0208 96.0687 51.315 96.0687 50.4015C96.0687 50.1026 96.0023 49.7372 95.8694 49.3054C95.7532 48.8737 95.4791 48.5 95.0474 48.1844C94.7152 47.9353 94.4412 47.7527 94.2253 47.6364C94.0094 47.5035 93.7935 47.3873 93.5776 47.2876C93.3617 47.1714 93.0877 47.0136 92.7555 46.8143L91.7591 46.2165C91.2442 45.9009 90.7294 45.5439 90.2146 45.1453C89.6998 44.7301 89.268 44.2485 88.9192 43.7004C88.5871 43.1524 88.421 42.5296 88.421 41.8321C88.421 40.9519 88.6452 40.188 89.0936 39.5403C89.5586 38.876 90.1565 38.3611 90.8872 37.9958C91.6345 37.6304 92.44 37.4477 93.3036 37.4477C93.6689 37.4477 94.0094 37.4726 94.3249 37.5225C94.6571 37.5557 94.9311 37.5972 95.147 37.647C95.6452 37.7633 95.994 37.8546 96.1933 37.921C96.4092 37.9875 96.6998 38.0622 97.0652 38.1452C97.2644 39.0088 97.3641 40.1963 97.3641 41.7075C97.3641 41.8238 97.2811 41.8819 97.115 41.8819C96.6998 41.8819 96.4839 41.7989 96.4673 41.6328C96.3843 41.1346 96.2016 40.6447 95.9192 40.163C95.6369 39.6814 95.2549 39.2829 94.7733 38.9673C94.2917 38.6352 93.7188 38.4691 93.0545 38.4691C92.3736 38.4691 91.8421 38.6019 91.4601 38.8677C91.0782 39.1168 90.8041 39.4406 90.6381 39.8392C90.4886 40.2212 90.4139 40.6281 90.4139 41.0599C90.4139 41.475 90.5135 41.8902 90.7128 42.3054C90.9121 42.7206 91.2027 43.0694 91.5847 43.3517C92.0995 43.7337 92.6144 44.0907 93.1292 44.4229C93.6606 44.755 94.2087 45.0955 94.7733 45.4442C95.3048 45.7764 95.8362 46.15 96.3676 46.5652C96.8991 46.9638 97.3392 47.4205 97.6879 47.9353C98.0533 48.4502 98.236 49.048 98.236 49.7289C98.236 50.6091 97.9952 51.398 97.5136 52.0955C97.0319 52.7764 96.3926 53.3161 95.5954 53.7147C94.8148 54.0967 93.9596 54.2877 93.0295 54.2877ZM99.4138 54.1133C99.3474 54.0469 99.3141 53.9223 99.3141 53.7396C99.3141 53.5071 99.3474 53.3909 99.4138 53.3909C99.5632 53.3909 99.7625 53.3743 100.012 53.3411C100.261 53.2912 100.493 53.2248 100.709 53.1418C100.925 53.0587 101.05 52.9757 101.083 52.8927C101.149 52.6602 101.191 52.3612 101.207 51.9959C101.241 51.6305 101.257 51.1904 101.257 50.6756V41.01C101.257 40.4952 101.241 40.0551 101.207 39.6897C101.191 39.3078 101.149 39.0088 101.083 38.7929C101.05 38.6933 100.925 38.6103 100.709 38.5438C100.493 38.4608 100.261 38.3944 100.012 38.3445C99.7625 38.2947 99.5632 38.2698 99.4138 38.2698C99.3474 38.2698 99.3141 38.1619 99.3141 37.946C99.3141 37.7467 99.3474 37.6138 99.4138 37.5474C99.5632 37.5474 99.8124 37.564 100.161 37.5972C100.526 37.6138 100.917 37.6387 101.332 37.6719C101.747 37.6885 102.104 37.6968 102.403 37.6968C102.935 37.6968 103.466 37.6802 103.997 37.647C104.529 37.5972 104.961 37.564 105.293 37.5474C105.326 37.6138 105.334 37.755 105.318 37.9709C105.318 38.1702 105.293 38.2698 105.243 38.2698C105.143 38.2698 104.969 38.303 104.72 38.3694C104.471 38.4193 104.238 38.4857 104.022 38.5687C103.806 38.6352 103.682 38.7099 103.649 38.7929C103.499 39.3576 103.424 40.1298 103.424 41.1097V44.8214L103.474 44.8962C104.288 44.9128 105.01 44.9294 105.642 44.946C106.273 44.946 106.812 44.946 107.261 44.946C107.742 44.946 108.29 44.946 108.905 44.946C109.519 44.9294 110.2 44.9128 110.948 44.8962C110.981 44.863 110.997 44.8297 110.997 44.7965V41.01C110.997 40.4952 110.981 40.0551 110.948 39.6897C110.931 39.3078 110.89 39.0088 110.823 38.7929C110.79 38.6933 110.665 38.6103 110.449 38.5438C110.234 38.4608 110.001 38.3944 109.752 38.3445C109.503 38.2947 109.304 38.2698 109.154 38.2698C109.088 38.2698 109.054 38.1619 109.054 37.946C109.054 37.7467 109.088 37.6138 109.154 37.5474C109.287 37.5474 109.536 37.564 109.901 37.5972C110.267 37.6138 110.657 37.6387 111.072 37.6719C111.504 37.6885 111.869 37.6968 112.168 37.6968C112.7 37.6968 113.223 37.6802 113.738 37.647C114.253 37.5972 114.676 37.564 115.008 37.5474C115.041 37.6802 115.058 37.8048 115.058 37.921C115.058 38.1535 115.025 38.2698 114.958 38.2698C114.859 38.2698 114.684 38.303 114.435 38.3694C114.186 38.4193 113.954 38.4857 113.738 38.5687C113.522 38.6352 113.397 38.7099 113.364 38.7929C113.298 39.0587 113.248 39.3825 113.215 39.7645C113.181 40.1464 113.165 40.5948 113.165 41.1097V50.5759C113.165 51.0908 113.181 51.5392 113.215 51.9211C113.248 52.3031 113.298 52.6269 113.364 52.8927C113.397 52.9591 113.522 53.0338 113.738 53.1169C113.954 53.1999 114.186 53.2663 114.435 53.3161C114.684 53.366 114.859 53.3909 114.958 53.3909C115.025 53.3909 115.058 53.5154 115.058 53.7646C115.058 53.8642 115.041 53.9804 115.008 54.1133C114.178 54.0801 113.522 54.0552 113.04 54.0386C112.575 54.0054 112.285 53.9888 112.168 53.9888L109.154 54.1133C109.088 54.0469 109.054 53.9057 109.054 53.6898C109.054 53.4905 109.088 53.3909 109.154 53.3909C109.304 53.3909 109.503 53.3743 109.752 53.3411C110.001 53.2912 110.234 53.2248 110.449 53.1418C110.665 53.0587 110.79 52.9757 110.823 52.8927C110.89 52.6602 110.931 52.3612 110.948 51.9959C110.981 51.6305 110.997 51.1904 110.997 50.6756V46.2912L110.948 46.1916C110.167 46.1749 109.47 46.1666 108.855 46.1666C108.241 46.15 107.709 46.1417 107.261 46.1417C104.703 46.1417 103.424 46.1832 103.424 46.2663V50.5759C103.424 51.5392 103.499 52.3114 103.649 52.8927C103.682 52.9591 103.806 53.0338 104.022 53.1169C104.238 53.1999 104.471 53.2663 104.72 53.3161C104.969 53.366 105.143 53.3909 105.243 53.3909C105.293 53.3909 105.318 53.4905 105.318 53.6898C105.334 53.8891 105.326 54.0303 105.293 54.1133C104.462 54.0801 103.806 54.0552 103.325 54.0386C102.843 54.0054 102.536 53.9888 102.403 53.9888L99.4138 54.1133ZM115.812 54.1133C115.746 54.0469 115.713 53.9223 115.713 53.7396C115.713 53.5071 115.746 53.3909 115.812 53.3909C116.012 53.3909 116.269 53.3494 116.585 53.2663C116.9 53.1833 117.116 53.067 117.232 52.9176C117.415 52.6851 117.598 52.3778 117.78 51.9959C117.98 51.6139 118.187 51.1406 118.403 50.5759L122.738 39.4406C122.837 39.1915 122.895 39.0171 122.912 38.9175C122.945 38.8178 122.97 38.7348 122.987 38.6684C123.02 38.5853 123.078 38.4525 123.161 38.2698C123.277 38.0373 123.394 37.8546 123.51 37.7218C123.626 37.5889 123.817 37.5225 124.083 37.5225L124.307 37.5972L129.289 50.7503C129.439 51.1323 129.572 51.4727 129.688 51.7717C129.821 52.0706 129.929 52.328 130.012 52.5439C130.078 52.71 130.219 52.8594 130.435 52.9923C130.668 53.1086 130.9 53.2082 131.133 53.2912C131.382 53.3577 131.573 53.3909 131.706 53.3909C131.772 53.3909 131.805 53.5487 131.805 53.8642C131.805 53.8974 131.797 53.9389 131.78 53.9888C131.78 54.022 131.772 54.0635 131.755 54.1133C130.925 54.0801 130.277 54.0552 129.812 54.0386C129.364 54.0054 129.098 53.9888 129.015 53.9888L126.126 54.1133C126.059 54.0469 126.026 53.914 126.026 53.7147C126.042 53.4988 126.084 53.3909 126.15 53.3909C126.35 53.3909 126.599 53.3494 126.898 53.2663C127.197 53.1833 127.371 53.0753 127.421 52.9425C127.438 52.8761 127.446 52.8096 127.446 52.7432C127.462 52.6768 127.471 52.6103 127.471 52.5439C127.471 52.328 127.446 52.0789 127.396 51.7966C127.346 51.4976 127.288 51.2651 127.222 51.0991L126.101 48.0101C126.051 47.9436 126.001 47.9104 125.951 47.9104C125.303 47.8606 124.672 47.8357 124.058 47.8357C123.626 47.8357 123.144 47.8523 122.613 47.8855C122.098 47.9021 121.525 47.927 120.894 47.9602L120.77 48.035L119.698 50.7752C119.532 51.1904 119.416 51.5392 119.35 51.8215C119.3 52.1038 119.275 52.328 119.275 52.4941C119.275 52.7266 119.341 52.8927 119.474 52.9923C119.624 53.1086 119.865 53.2082 120.197 53.2912C120.529 53.3577 120.77 53.3909 120.919 53.3909C120.969 53.3909 120.994 53.4905 120.994 53.6898C121.01 53.8891 121.002 54.0303 120.969 54.1133L118.403 53.9888C117.938 53.9555 117.481 53.9638 117.033 54.0137C116.601 54.0469 116.194 54.0801 115.812 54.1133ZM123.186 46.64C123.933 46.64 124.689 46.615 125.453 46.5652L125.528 46.4407L123.51 40.9353L121.368 46.4905C121.368 46.5569 121.384 46.5901 121.417 46.5901C121.849 46.6067 122.206 46.6233 122.489 46.64C122.787 46.64 123.02 46.64 123.186 46.64ZM139.585 54.2379C139.485 54.2379 139.41 54.1963 139.36 54.1133L132.883 41.2342C132.651 40.7526 132.41 40.3125 132.161 39.9139C131.912 39.5154 131.671 39.1583 131.439 38.8428C131.306 38.6767 131.082 38.5438 130.766 38.4442C130.45 38.3279 130.193 38.2698 129.994 38.2698C129.927 38.2698 129.894 38.1619 129.894 37.946C129.894 37.7467 129.927 37.6138 129.994 37.5474L133.133 37.6719L135.748 37.5474C135.781 37.6138 135.79 37.755 135.773 37.9709C135.773 38.1702 135.748 38.2698 135.698 38.2698C135.433 38.2698 135.159 38.3362 134.876 38.4691C134.594 38.5853 134.453 38.7597 134.453 38.9922C134.453 39.4904 134.644 40.1049 135.026 40.8357L140.182 51.0492C140.232 51.1323 140.299 51.1572 140.382 51.124C140.465 51.0741 140.523 51.0077 140.556 50.9247L142.624 46.615L140.008 41.2342C139.776 40.7526 139.535 40.3125 139.286 39.9139C139.037 39.5154 138.796 39.1583 138.563 38.8428C138.43 38.6767 138.206 38.5438 137.891 38.4442C137.575 38.3279 137.318 38.2698 137.118 38.2698C137.052 38.2698 137.019 38.1452 137.019 37.8961C137.019 37.7301 137.052 37.6138 137.118 37.5474L140.257 37.6719L142.848 37.5474C142.881 37.6138 142.889 37.755 142.873 37.9709C142.873 38.1702 142.848 38.2698 142.798 38.2698C142.532 38.2698 142.258 38.3279 141.976 38.4442C141.71 38.5604 141.577 38.7431 141.577 38.9922C141.577 39.2081 141.619 39.4738 141.702 39.7894C141.802 40.0883 141.951 40.4371 142.15 40.8357L143.795 44.1987L145.538 40.5367C145.771 40.0551 145.887 39.5735 145.887 39.0919C145.887 38.8095 145.704 38.6019 145.339 38.4691C144.99 38.3362 144.683 38.2698 144.417 38.2698C144.351 38.2698 144.318 38.1619 144.318 37.946C144.318 37.7467 144.351 37.6138 144.417 37.5474C145.082 37.5806 145.621 37.6138 146.037 37.647C146.468 37.6802 146.767 37.6885 146.933 37.6719L149.524 37.5474C149.557 37.6138 149.566 37.755 149.549 37.9709C149.549 38.1702 149.524 38.2698 149.474 38.2698C149.375 38.2698 149.209 38.303 148.976 38.3694C148.744 38.4193 148.511 38.5023 148.279 38.6186C148.046 38.7182 147.872 38.8345 147.755 38.9673C147.606 39.15 147.407 39.4572 147.158 39.889C146.925 40.3042 146.643 40.8523 146.311 41.5332L144.392 45.4691L147.108 51.0492C147.191 51.1987 147.29 51.1572 147.407 50.9247L151.866 40.6862C152.015 40.354 152.123 40.0551 152.19 39.7894C152.256 39.5237 152.289 39.2995 152.289 39.1168C152.289 38.8345 152.115 38.6269 151.766 38.494C151.434 38.3445 151.135 38.2698 150.869 38.2698C150.803 38.2698 150.77 38.1619 150.77 37.946C150.77 37.7467 150.803 37.6138 150.869 37.5474C151.534 37.5806 152.073 37.6138 152.489 37.647C152.92 37.6636 153.228 37.6719 153.41 37.6719C153.892 37.6719 154.34 37.6553 154.755 37.6221C155.171 37.5889 155.544 37.564 155.876 37.5474C155.91 37.6802 155.926 37.8048 155.926 37.921C155.926 38.1535 155.893 38.2698 155.827 38.2698C155.661 38.2698 155.395 38.3362 155.029 38.4691C154.664 38.5853 154.39 38.7514 154.207 38.9673C153.742 39.532 153.261 40.3706 152.763 41.4833L147.481 53.4407C147.249 53.9721 146.925 54.2379 146.51 54.2379C146.41 54.2379 146.335 54.1963 146.286 54.1133L143.246 47.8855L140.556 53.4407C140.307 53.9721 139.983 54.2379 139.585 54.2379Z" fill="white"/>
<path d="M45.7381 65.885C45.7069 65.8538 45.6913 65.807 45.6913 65.7446C45.6913 65.6573 45.7069 65.6136 45.7381 65.6136C45.8005 65.6136 45.8816 65.6042 45.9814 65.5855C46.0813 65.5668 46.178 65.5418 46.2716 65.5107C46.3652 65.4795 46.4307 65.4451 46.4681 65.4077C46.5742 65.2954 46.6303 65.024 46.6366 64.5935C46.6491 63.8697 46.6615 63.2208 46.674 62.6468C46.6927 62.0665 46.7083 61.5924 46.7208 61.2242C46.7333 60.8499 46.7395 60.6097 46.7395 60.5036C46.7395 60.3351 46.727 60.2103 46.7021 60.1292C46.6896 60.0918 46.6335 60.0606 46.5336 60.0356C46.44 60.0045 46.3371 59.9795 46.2248 59.9608C46.1125 59.9421 46.0251 59.9327 45.9627 59.9327C45.9378 59.9327 45.9253 59.889 45.9253 59.8017C45.9253 59.733 45.9378 59.6862 45.9627 59.6613C46.1125 59.6675 46.2778 59.6769 46.4588 59.6894C46.6397 59.7018 46.8238 59.7081 47.0109 59.7081C47.1295 59.7081 47.2574 59.705 47.3947 59.6987C47.5382 59.6862 47.6973 59.6738 47.872 59.6613C47.9219 59.7986 48.5396 61.3615 49.725 64.3501C49.7375 64.3626 49.75 64.3689 49.7625 64.3689C49.7874 64.3689 49.803 64.3564 49.8093 64.3314C50.115 63.6139 50.3895 62.9588 50.6329 62.366C50.8762 61.7733 51.0883 61.2461 51.2693 60.7844L51.6436 59.6613C51.8433 59.6738 52.0055 59.6831 52.1303 59.6894C52.2613 59.6956 52.358 59.6987 52.4204 59.6987C52.6138 59.6987 52.7979 59.6956 52.9726 59.6894C53.1473 59.6831 53.3126 59.6738 53.4686 59.6613C53.4874 59.7174 53.4967 59.7642 53.4967 59.8017C53.4967 59.889 53.4811 59.9327 53.4499 59.9327H53.4312C53.3626 59.9327 53.2721 59.9545 53.1598 59.9982C53.0475 60.0356 52.9632 60.0762 52.9071 60.1199C52.8322 60.176 52.7948 60.385 52.7948 60.7469L52.879 64.5467C52.8915 64.9086 52.9383 65.1956 53.0194 65.4077C53.0381 65.4451 53.088 65.4795 53.1691 65.5107C53.2503 65.5418 53.3376 65.5668 53.4312 65.5855C53.531 65.6042 53.6028 65.6136 53.6465 65.6136C53.6714 65.6136 53.6839 65.6573 53.6839 65.7446C53.6839 65.7883 53.6776 65.8351 53.6652 65.885C53.3532 65.8725 53.1036 65.8632 52.9165 65.8569C52.7355 65.8445 52.6138 65.8382 52.5515 65.8382L51.4284 65.885C51.4034 65.8601 51.3909 65.8101 51.3909 65.7353C51.3909 65.6542 51.4034 65.6136 51.4284 65.6136C51.4908 65.6136 51.5844 65.598 51.7091 65.5668C51.8402 65.5356 51.9338 65.5044 51.9899 65.4732C52.0648 65.4233 52.1022 65.2892 52.1022 65.0708V64.5748L51.9899 61.2804C51.9899 61.2118 51.9806 61.1369 51.9618 61.0558C51.9494 60.9684 51.9338 60.8936 51.915 60.8312C51.8963 60.7625 51.8745 60.7282 51.8495 60.7282C51.8371 60.7282 51.8215 60.75 51.8027 60.7937L49.8467 65.4732C49.7282 65.7415 49.6127 65.8757 49.5004 65.8757C49.4942 65.8757 49.4661 65.8694 49.4162 65.8569L47.273 60.41C47.2543 61.2898 47.2324 62.0759 47.2075 62.7685C47.1825 63.4548 47.1607 64.007 47.142 64.425C47.1295 64.843 47.1232 65.0864 47.1232 65.155C47.1232 65.2673 47.142 65.3484 47.1794 65.3983C47.2044 65.4295 47.2667 65.4639 47.3666 65.5013C47.4664 65.5325 47.5694 65.5606 47.6754 65.5855C47.7877 65.6042 47.8626 65.6136 47.9 65.6136C47.925 65.6136 47.9375 65.6604 47.9375 65.754C47.9375 65.7914 47.9312 65.8351 47.9188 65.885C47.6068 65.8725 47.3603 65.8632 47.1794 65.8569C46.9985 65.8445 46.883 65.8382 46.8331 65.8382L45.7381 65.885ZM56.1056 65.9131C55.7625 65.9131 55.4474 65.8226 55.1604 65.6417C54.8734 65.4607 54.6425 65.2205 54.4678 64.921C54.2993 64.6153 54.2151 64.2753 54.2151 63.9009C54.2151 63.4642 54.2962 63.0867 54.4584 62.7685C54.6207 62.4503 54.8422 62.2069 55.1229 62.0385C55.4037 61.8638 55.7188 61.7764 56.0682 61.7764C56.3552 61.7764 56.6079 61.8326 56.8263 61.9449C57.0446 62.0509 57.2131 62.1882 57.3316 62.3567C57.444 62.5314 57.5251 62.7092 57.575 62.8901C57.6311 63.0648 57.6592 63.2395 57.6592 63.4142C57.6592 63.539 57.6405 63.617 57.6031 63.6482C57.5656 63.6732 57.4939 63.6856 57.3878 63.6856H55.0293C54.9794 63.6856 54.9545 63.7012 54.9545 63.7324C54.9545 63.9945 55.0075 64.2472 55.1136 64.4905C55.2196 64.7276 55.3756 64.9242 55.5815 65.0801C55.7874 65.2361 56.0401 65.3141 56.3396 65.3141C56.6016 65.3141 56.82 65.2767 56.9947 65.2018C57.1757 65.1207 57.3067 65.0489 57.3878 64.9865L57.4533 64.9398C57.4907 64.9398 57.5095 64.9803 57.5095 65.0614C57.5095 65.1051 57.4907 65.1612 57.4533 65.2299C57.3285 65.4046 57.1445 65.5637 56.9011 65.7072C56.6578 65.8445 56.3926 65.9131 56.1056 65.9131ZM55.0293 63.2926H56.8543C56.8855 63.2926 56.9011 63.2614 56.9011 63.199C56.9011 63.0617 56.8637 62.912 56.7888 62.7498C56.7202 62.5813 56.6141 62.4347 56.4706 62.3099C56.3271 62.1851 56.1462 62.1227 55.9278 62.1227C55.7281 62.1227 55.5566 62.1913 55.4131 62.3286C55.2695 62.4596 55.1604 62.6125 55.0855 62.7872C55.0106 62.9556 54.9732 63.1023 54.9732 63.2271C54.9732 63.2707 54.9919 63.2926 55.0293 63.2926ZM58.0875 65.885C58.0625 65.8601 58.05 65.807 58.05 65.7259C58.05 65.651 58.0625 65.6136 58.0875 65.6136C58.1374 65.6136 58.206 65.6042 58.2934 65.5855C58.3807 65.5668 58.4618 65.5418 58.5367 65.5107C58.6116 65.4795 58.6521 65.4514 58.6584 65.4264C58.6833 65.3391 58.6989 65.2392 58.7052 65.1269C58.7176 65.0146 58.7239 64.8961 58.7239 64.7713V63.0024C58.7239 62.7653 58.6802 62.5969 58.5929 62.4971C58.5305 62.4222 58.4556 62.3723 58.3682 62.3473C58.2871 62.3224 58.2123 62.3099 58.1436 62.3099C58.0812 62.3036 58.05 62.2943 58.05 62.2818C58.05 62.1321 58.0688 62.0541 58.1062 62.0478C58.4369 61.9979 58.6958 61.9542 58.883 61.9168C59.0764 61.8794 59.223 61.8482 59.3229 61.8232L59.4445 61.7951C59.4695 61.7889 59.4851 61.8139 59.4913 61.87C59.4976 61.9199 59.4976 61.9605 59.4913 61.9917C59.4788 62.079 59.4695 62.1539 59.4632 62.2163C59.457 62.2787 59.4539 62.3286 59.4539 62.366C59.4539 62.391 59.4601 62.4035 59.4726 62.4035C59.4788 62.4035 59.4882 62.3972 59.5007 62.3848C59.6442 62.235 59.8376 62.0946 60.0809 61.9636C60.3305 61.8263 60.5676 61.7577 60.7922 61.7577C61.0418 61.7577 61.2477 61.8263 61.4099 61.9636C61.5784 62.0946 61.6938 62.2475 61.7562 62.4222C62.2304 61.9792 62.7139 61.7577 63.2068 61.7577C63.993 61.7577 64.3861 62.3567 64.3861 63.5546V64.5935C64.3861 64.7744 64.3923 64.9335 64.4048 65.0708C64.4173 65.208 64.436 65.3266 64.4609 65.4264C64.4734 65.4514 64.5171 65.4795 64.592 65.5107C64.6668 65.5418 64.7479 65.5668 64.8353 65.5855C64.9227 65.6042 64.985 65.6136 65.0225 65.6136C65.0412 65.6136 65.0537 65.651 65.0599 65.7259C65.0662 65.8008 65.063 65.8538 65.0506 65.885L64.0491 65.8382L63.029 65.885C63.0041 65.8601 62.9916 65.807 62.9916 65.7259C62.9916 65.651 63.0041 65.6136 63.029 65.6136C63.0789 65.6136 63.1476 65.6042 63.2349 65.5855C63.3223 65.5668 63.4034 65.5418 63.4782 65.5107C63.5531 65.4795 63.5937 65.4514 63.5999 65.4264C63.6249 65.3391 63.6405 65.2455 63.6467 65.1457C63.6592 65.0396 63.6654 64.9335 63.6654 64.8274V63.7699C63.6654 62.809 63.3503 62.3286 62.7202 62.3286C62.5704 62.3286 62.43 62.3629 62.299 62.4315C62.168 62.4939 62.0619 62.5657 61.9808 62.6468C61.9059 62.7279 61.8685 62.7997 61.8685 62.8621C61.8872 62.9806 61.8997 63.1023 61.9059 63.2271C61.9122 63.3456 61.9153 63.4766 61.9153 63.6201V64.6777C61.9153 64.8337 61.9215 64.9741 61.934 65.0989C61.9465 65.2174 61.9652 65.3266 61.9902 65.4264C62.0026 65.4514 62.0463 65.4795 62.1212 65.5107C62.1961 65.5418 62.2772 65.5668 62.3645 65.5855C62.4519 65.6042 62.5143 65.6136 62.5517 65.6136C62.5704 65.6136 62.5829 65.651 62.5891 65.7259C62.5954 65.8008 62.5923 65.8538 62.5798 65.885L61.5784 65.8382L60.5582 65.885C60.5333 65.8601 60.5208 65.807 60.5208 65.7259C60.5208 65.651 60.5333 65.6136 60.5582 65.6136C60.6082 65.6136 60.6768 65.6042 60.7641 65.5855C60.8515 65.5668 60.9326 65.5418 61.0075 65.5107C61.0823 65.4795 61.1229 65.4514 61.1291 65.4264C61.1541 65.3391 61.1697 65.2392 61.1759 65.1269C61.1884 65.0146 61.1947 64.8961 61.1947 64.7713V63.8167C61.1947 62.8246 60.8952 62.3286 60.2962 62.3286C60.1714 62.3286 60.0435 62.3629 59.9125 62.4315C59.7815 62.4939 59.6691 62.5751 59.5756 62.6749C59.4882 62.7685 59.4445 62.8589 59.4445 62.9463V64.5935C59.4445 64.7744 59.4508 64.9335 59.4632 65.0708C59.4757 65.208 59.4944 65.3266 59.5194 65.4264C59.5319 65.4514 59.5756 65.4795 59.6504 65.5107C59.7253 65.5418 59.8064 65.5668 59.8938 65.5855C59.9811 65.6042 60.0435 65.6136 60.0809 65.6136C60.0997 65.6136 60.1121 65.651 60.1184 65.7259C60.1246 65.8008 60.1215 65.8538 60.109 65.885L59.1076 65.8382L58.0875 65.885ZM67.5846 65.9224C67.2102 65.9224 66.8671 65.8289 66.5551 65.6417C66.2431 65.4545 65.9936 65.2018 65.8064 64.8836C65.6254 64.5654 65.535 64.216 65.535 63.8354C65.535 63.4486 65.6223 63.0992 65.797 62.7872C65.978 62.4752 66.2213 62.2288 66.527 62.0478C66.8328 61.8606 67.179 61.7671 67.5659 61.7671C67.9402 61.7671 68.2803 61.8606 68.586 62.0478C68.898 62.235 69.1444 62.4846 69.3254 62.7965C69.5125 63.1085 69.6061 63.4548 69.6061 63.8354C69.6061 64.216 69.5157 64.5654 69.3347 64.8836C69.1538 65.2018 68.9105 65.4545 68.6047 65.6417C68.3052 65.8289 67.9652 65.9224 67.5846 65.9224ZM67.6688 65.5574C67.8934 65.5574 68.09 65.4857 68.2584 65.3422C68.4269 65.1987 68.5579 65.0053 68.6515 64.7619C68.7513 64.5186 68.8013 64.2534 68.8013 63.9664C68.8013 63.6295 68.7389 63.3238 68.6141 63.0492C68.4893 62.7685 68.324 62.547 68.1181 62.3848C67.9184 62.2163 67.7 62.1321 67.4629 62.1321C67.2446 62.1321 67.048 62.2038 66.8733 62.3473C66.7049 62.4846 66.5738 62.6718 66.4802 62.9089C66.3866 63.1397 66.3399 63.4018 66.3399 63.695C66.3399 64.0319 66.3991 64.3439 66.5177 64.6309C66.6425 64.9117 66.8047 65.1363 67.0043 65.3048C67.2102 65.4732 67.4317 65.5574 67.6688 65.5574ZM70.2122 65.885C70.1873 65.8601 70.1748 65.807 70.1748 65.7259C70.1748 65.651 70.1873 65.6136 70.2122 65.6136C70.2621 65.6136 70.3308 65.6042 70.4181 65.5855C70.5055 65.5668 70.5866 65.5418 70.6615 65.5107C70.7363 65.4795 70.7769 65.4514 70.7831 65.4264C70.8081 65.3391 70.8237 65.2392 70.8299 65.1269C70.8424 65.0146 70.8486 64.8961 70.8486 64.7713V63.0024C70.8486 62.7653 70.805 62.5969 70.7176 62.4971C70.6552 62.4222 70.5803 62.3723 70.493 62.3473C70.4119 62.3224 70.337 62.3099 70.2684 62.3099C70.206 62.3036 70.1748 62.2943 70.1748 62.2818C70.1748 62.1321 70.1935 62.0541 70.2309 62.0478C70.911 61.9418 71.3041 61.8731 71.4102 61.8419L71.5693 61.7951C71.5942 61.7889 71.6098 61.8139 71.6161 61.87C71.6223 61.9262 71.6223 61.9667 71.6161 61.9917L71.5599 62.4596C71.6722 62.2912 71.8251 62.1352 72.0185 61.9917C72.2182 61.8419 72.4147 61.7671 72.6081 61.7671C72.97 61.7671 73.2133 61.8575 73.3381 62.0385C73.3381 62.2568 73.3038 62.4159 73.2352 62.5158C73.1665 62.6156 73.0823 62.6655 72.9825 62.6655C72.8702 62.6655 72.7672 62.6125 72.6736 62.5064C72.58 62.4003 72.4521 62.3473 72.2899 62.3473C72.1651 62.3473 72.0466 62.391 71.9343 62.4783C71.822 62.5595 71.7315 62.6655 71.6629 62.7965C71.6005 62.9213 71.5693 63.0524 71.5693 63.1896V64.5935C71.5693 64.7744 71.5755 64.9335 71.588 65.0708C71.6005 65.208 71.6192 65.3266 71.6441 65.4264C71.6566 65.4514 71.7003 65.4795 71.7752 65.5107C71.85 65.5418 71.9312 65.5668 72.0185 65.5855C72.1121 65.6042 72.1776 65.6136 72.215 65.6136C72.2338 65.6136 72.2462 65.651 72.2525 65.7259C72.2587 65.8008 72.2556 65.8538 72.2431 65.885L71.2324 65.8382L70.2122 65.885ZM73.6634 65.885C73.6385 65.8601 73.626 65.807 73.626 65.7259C73.626 65.651 73.6385 65.6136 73.6634 65.6136C73.7134 65.6136 73.782 65.6042 73.8693 65.5855C73.9567 65.5668 74.0378 65.5418 74.1127 65.5107C74.1875 65.4795 74.2281 65.4514 74.2343 65.4264C74.2593 65.3391 74.2749 65.2392 74.2811 65.1269C74.2936 65.0146 74.2999 64.8961 74.2999 64.7713V63.0024C74.2999 62.7653 74.2562 62.5969 74.1688 62.4971C74.1064 62.4159 74.0316 62.366 73.9442 62.3473C73.8569 62.3224 73.782 62.3099 73.7196 62.3099C73.6572 62.3036 73.626 62.2943 73.626 62.2818C73.626 62.1321 73.6447 62.0541 73.6822 62.0478C74.0128 61.9979 74.2655 61.9574 74.4402 61.9262C74.6149 61.8887 74.7709 61.8544 74.9082 61.8232L75.0205 61.7951C75.0455 61.7889 75.061 61.8139 75.0673 61.87C75.0735 61.9262 75.0735 61.9667 75.0673 61.9917C75.0548 62.1165 75.0423 62.235 75.0299 62.3473C75.0236 62.4596 75.0205 62.5657 75.0205 62.6655V64.5935C75.0205 64.7744 75.0267 64.9335 75.0392 65.0708C75.0517 65.208 75.0704 65.3266 75.0954 65.4264C75.1078 65.4514 75.1515 65.4795 75.2264 65.5107C75.3013 65.5418 75.3824 65.5668 75.4697 65.5855C75.5571 65.6042 75.6195 65.6136 75.6569 65.6136C75.6756 65.6136 75.6881 65.651 75.6943 65.7259C75.7006 65.8008 75.6975 65.8538 75.685 65.885L74.6836 65.8382L73.6634 65.885ZM74.59 60.775C74.4652 60.775 74.356 60.7282 74.2624 60.6346C74.1688 60.541 74.122 60.4318 74.122 60.3071C74.122 60.176 74.1688 60.0668 74.2624 59.9795C74.356 59.8859 74.4652 59.8391 74.59 59.8391C74.721 59.8391 74.8302 59.8859 74.9175 59.9795C75.0111 60.0668 75.0579 60.176 75.0579 60.3071C75.0579 60.4318 75.0111 60.541 74.9175 60.6346C74.8302 60.7282 74.721 60.775 74.59 60.775ZM77.227 65.9224C76.94 65.9224 76.7029 65.8476 76.5157 65.6978C76.3285 65.5418 76.2349 65.311 76.2349 65.0053C76.2349 64.6309 76.4782 64.3189 76.9649 64.0694C77.1771 63.9633 77.3861 63.8791 77.592 63.8167C77.8041 63.7543 78.0162 63.6825 78.2284 63.6014C78.2845 63.5827 78.3126 63.5359 78.3126 63.461V62.7591C78.3126 62.5595 78.2502 62.4066 78.1254 62.3005C78.0006 62.1882 77.8509 62.1321 77.6762 62.1321C77.489 62.1321 77.333 62.1976 77.2082 62.3286C77.0835 62.4534 77.0211 62.6187 77.0211 62.8246C77.0211 63.043 76.8932 63.1522 76.6373 63.1522C76.4564 63.1522 76.3347 63.0929 76.2723 62.9744C76.2723 62.8433 76.3254 62.7092 76.4315 62.5719C76.5438 62.4284 76.6873 62.2974 76.862 62.1789C77.0367 62.0603 77.227 61.9636 77.4329 61.8887C77.645 61.8139 77.854 61.7764 78.0599 61.7764C78.4031 61.7764 78.6495 61.8606 78.7993 62.0291C78.949 62.1913 79.0239 62.4565 79.0239 62.8246V64.9865C79.0239 65.1176 79.0582 65.2268 79.1268 65.3141C79.1955 65.4015 79.2891 65.4451 79.4076 65.4451C79.4887 65.4451 79.5979 65.4015 79.7352 65.3141C79.7601 65.3141 79.7726 65.3391 79.7726 65.389C79.7726 65.4701 79.757 65.5356 79.7258 65.5855C79.47 65.8039 79.2516 65.9131 79.0707 65.9131C78.9272 65.9131 78.7899 65.8538 78.6589 65.7353C78.5279 65.6167 78.4374 65.4919 78.3875 65.3609C78.3563 65.3859 78.3157 65.4202 78.2658 65.4639C78.2221 65.5013 78.1847 65.5325 78.1535 65.5574C78.0225 65.6573 77.879 65.7446 77.723 65.8195C77.5732 65.8881 77.4079 65.9224 77.227 65.9224ZM77.5826 65.389C77.7573 65.389 77.9226 65.3391 78.0786 65.2392C78.2346 65.1394 78.3126 65.0333 78.3126 64.921V63.9571C78.1504 64.0195 77.9944 64.0756 77.8447 64.1255C77.7012 64.1754 77.5857 64.216 77.4984 64.2472C77.3861 64.2909 77.2769 64.3689 77.1708 64.4812C77.071 64.5935 77.0211 64.7214 77.0211 64.8649C77.0211 65.0521 77.0772 65.1862 77.1895 65.2673C77.3081 65.3484 77.4391 65.389 77.5826 65.389ZM79.9107 65.885C79.8858 65.8601 79.8733 65.807 79.8733 65.7259C79.8733 65.651 79.8858 65.6136 79.9107 65.6136C79.9607 65.6136 80.0293 65.6042 80.1166 65.5855C80.204 65.5668 80.2851 65.5418 80.36 65.5107C80.4349 65.4795 80.4754 65.4514 80.4816 65.4264C80.5066 65.3391 80.5222 65.2392 80.5284 65.1269C80.5409 65.0146 80.5472 64.8961 80.5472 64.7713V60.7189C80.5472 60.5067 80.5284 60.3071 80.491 60.1199C80.466 60.02 80.3069 59.9701 80.0137 59.9701H79.9295C79.892 59.9701 79.8733 59.9358 79.8733 59.8672C79.8733 59.7674 79.892 59.7174 79.9295 59.7174C80.3038 59.6738 80.5815 59.6239 80.7624 59.5677C80.9434 59.5115 81.0681 59.4616 81.1368 59.418L81.2304 59.3618H81.2491C81.274 59.3618 81.299 59.3805 81.324 59.418C81.3489 59.4492 81.3645 59.4803 81.3707 59.5115C81.3021 59.7174 81.2678 59.9889 81.2678 60.3258V64.5935C81.2678 64.7744 81.274 64.9335 81.2865 65.0708C81.299 65.208 81.3177 65.3266 81.3427 65.4264C81.3552 65.4514 81.3988 65.4795 81.4737 65.5107C81.5486 65.5418 81.6297 65.5668 81.717 65.5855C81.8044 65.6042 81.8668 65.6136 81.9042 65.6136C81.9229 65.6136 81.9354 65.651 81.9416 65.7259C81.9479 65.8008 81.9448 65.8538 81.9323 65.885L80.9309 65.8382L79.9107 65.885ZM87.4122 65.9131C87.0004 65.9131 86.6135 65.832 86.2516 65.6698C85.896 65.5075 85.5809 65.286 85.3064 65.0053C85.0381 64.7245 84.826 64.4001 84.67 64.0319C84.5202 63.6576 84.4454 63.2614 84.4454 62.8433C84.4454 62.4003 84.5233 61.9854 84.6793 61.5986C84.8353 61.2055 85.0537 60.8624 85.3345 60.5691C85.6152 60.2696 85.9397 60.0356 86.3078 59.8672C86.6822 59.6987 87.0846 59.6145 87.5151 59.6145C87.9581 59.6145 88.6975 59.7549 89.7332 60.0356L89.7706 61.1962C89.7706 61.2898 89.7051 61.3365 89.5741 61.3365C89.5117 61.3365 89.4711 61.3209 89.4524 61.2898C89.284 60.435 88.6475 60.0076 87.5432 60.0076C87.1314 60.0076 86.7601 60.1292 86.4295 60.3726C86.0988 60.6159 85.8367 60.9435 85.6433 61.3553C85.4499 61.7671 85.3532 62.2225 85.3532 62.7217C85.3532 63.0648 85.4125 63.4049 85.531 63.7418C85.6558 64.0725 85.8242 64.372 86.0364 64.6403C86.2548 64.9023 86.5106 65.1145 86.8038 65.2767C87.1033 65.4327 87.4246 65.5107 87.7678 65.5107C88.3231 65.5107 88.7287 65.442 88.9845 65.3048C89.0281 65.286 89.05 65.2392 89.05 65.1644L89.0406 64.3969V64.3314C89.0406 63.9321 89.0157 63.6638 88.9657 63.5265C88.9533 63.4829 88.9002 63.4486 88.8066 63.4236C88.7131 63.3924 88.6132 63.3674 88.5072 63.3487C88.4011 63.33 88.3137 63.3206 88.2451 63.3206C88.2201 63.3206 88.2077 63.2801 88.2077 63.199C88.2077 63.1241 88.2201 63.0742 88.2451 63.0492L89.4711 63.096L90.4819 63.0492C90.4944 63.0992 90.5006 63.1428 90.5006 63.1803C90.5006 63.2739 90.4881 63.3206 90.4632 63.3206C90.4382 63.3206 90.3883 63.33 90.3134 63.3487C90.2448 63.3674 90.1699 63.3893 90.0888 63.4142C90.014 63.4392 89.9578 63.4642 89.9204 63.4891C89.858 63.5328 89.8268 63.7418 89.8268 64.1162C89.8268 64.1786 89.8268 64.2472 89.8268 64.3221C89.833 64.3907 89.8393 64.4624 89.8455 64.5373L89.8548 64.79C89.8548 64.9148 89.8767 65.024 89.9204 65.1176C89.964 65.2112 89.9859 65.2736 89.9859 65.3048C89.9859 65.3547 89.9079 65.4108 89.7519 65.4732C89.6521 65.5231 89.5678 65.5574 89.4992 65.5762C89.4306 65.5949 89.3838 65.6105 89.3588 65.623C89.3276 65.6354 89.259 65.6604 89.1529 65.6978C89.0469 65.729 88.9595 65.7509 88.8909 65.7633C88.7224 65.7945 88.5664 65.8226 88.4229 65.8476C88.2794 65.8663 88.1297 65.8819 87.9737 65.8944C87.8177 65.9068 87.6305 65.9131 87.4122 65.9131ZM93.0253 65.9224C92.6509 65.9224 92.3078 65.8289 91.9958 65.6417C91.6838 65.4545 91.4343 65.2018 91.2471 64.8836C91.0662 64.5654 90.9757 64.216 90.9757 63.8354C90.9757 63.4486 91.063 63.0992 91.2377 62.7872C91.4187 62.4752 91.662 62.2288 91.9677 62.0478C92.2735 61.8606 92.6197 61.7671 93.0066 61.7671C93.3809 61.7671 93.721 61.8606 94.0267 62.0478C94.3387 62.235 94.5851 62.4846 94.7661 62.7965C94.9532 63.1085 95.0468 63.4548 95.0468 63.8354C95.0468 64.216 94.9564 64.5654 94.7754 64.8836C94.5945 65.2018 94.3512 65.4545 94.0454 65.6417C93.7459 65.8289 93.4059 65.9224 93.0253 65.9224ZM93.1095 65.5574C93.3341 65.5574 93.5307 65.4857 93.6991 65.3422C93.8676 65.1987 93.9986 65.0053 94.0922 64.7619C94.1921 64.5186 94.242 64.2534 94.242 63.9664C94.242 63.6295 94.1796 63.3238 94.0548 63.0492C93.93 62.7685 93.7647 62.547 93.5588 62.3848C93.3591 62.2163 93.1407 62.1321 92.9036 62.1321C92.6853 62.1321 92.4887 62.2038 92.314 62.3473C92.1456 62.4846 92.0145 62.6718 91.9209 62.9089C91.8273 63.1397 91.7806 63.4018 91.7806 63.695C91.7806 64.0319 91.8398 64.3439 91.9584 64.6309C92.0832 64.9117 92.2454 65.1363 92.445 65.3048C92.6509 65.4732 92.8724 65.5574 93.1095 65.5574ZM95.4845 65.885C95.4595 65.8601 95.447 65.807 95.447 65.7259C95.447 65.651 95.4595 65.6136 95.4845 65.6136C95.5344 65.6136 95.603 65.6042 95.6904 65.5855C95.7777 65.5668 95.8588 65.5418 95.9337 65.5107C96.0086 65.4795 96.0491 65.4514 96.0554 65.4264C96.0803 65.3391 96.0959 65.2392 96.1022 65.1269C96.1146 65.0146 96.1209 64.8961 96.1209 64.7713V60.7189C96.1209 60.5067 96.1022 60.3071 96.0647 60.1199C96.0398 60.02 95.8807 59.9701 95.5874 59.9701H95.5032C95.4657 59.9701 95.447 59.9358 95.447 59.8672C95.447 59.7674 95.4657 59.7174 95.5032 59.7174C95.8775 59.6738 96.1552 59.6239 96.3361 59.5677C96.5171 59.5115 96.6419 59.4616 96.7105 59.418L96.8041 59.3618H96.8228C96.8478 59.3618 96.8727 59.3805 96.8977 59.418C96.9226 59.4492 96.9382 59.4803 96.9445 59.5115C96.8758 59.7174 96.8415 59.9889 96.8415 60.3258V64.5935C96.8415 64.7744 96.8478 64.9335 96.8602 65.0708C96.8727 65.208 96.8914 65.3266 96.9164 65.4264C96.9289 65.4514 96.9725 65.4795 97.0474 65.5107C97.1223 65.5418 97.2034 65.5668 97.2907 65.5855C97.3781 65.6042 97.4405 65.6136 97.4779 65.6136C97.4966 65.6136 97.5091 65.651 97.5154 65.7259C97.5216 65.8008 97.5185 65.8538 97.506 65.885L96.5046 65.8382L95.4845 65.885ZM97.8407 65.885C97.822 65.8663 97.8095 65.8164 97.8032 65.7353C97.8032 65.6542 97.8157 65.6136 97.8407 65.6136C97.8906 65.6136 97.9561 65.6042 98.0372 65.5855C98.1183 65.5668 98.1932 65.5418 98.2618 65.5107C98.3367 65.4795 98.3773 65.4514 98.3835 65.4264C98.4147 65.3016 98.4365 65.1706 98.449 65.0333C98.4677 64.8961 98.4771 64.7495 98.4771 64.5935V62.4409C98.4771 62.3972 98.4615 62.3754 98.4303 62.3754H97.9343C97.9156 62.3754 97.9062 62.3567 97.9062 62.3192C97.9062 62.2631 97.953 62.1851 98.0466 62.0853C98.1464 61.9854 98.2556 61.9355 98.3741 61.9355H98.4303C98.4615 61.9355 98.4771 61.9168 98.4771 61.8794V61.7577C98.4771 61.427 98.5301 61.1182 98.6362 60.8312C98.7423 60.5442 98.8826 60.2883 99.0573 60.0637C99.2383 59.8391 99.4379 59.6644 99.6563 59.5396C99.8809 59.4148 100.109 59.3524 100.34 59.3524C100.795 59.3524 101.091 59.4741 101.229 59.7174C101.229 60.1105 101.116 60.3071 100.892 60.3071C100.823 60.3071 100.761 60.279 100.705 60.2228C100.648 60.1604 100.589 60.0918 100.527 60.0169C100.471 59.9358 100.402 59.8672 100.321 59.811C100.246 59.7486 100.155 59.7174 100.049 59.7174C99.8685 59.7174 99.7125 59.7954 99.5815 59.9514C99.4504 60.1074 99.3506 60.3133 99.282 60.5691C99.2196 60.8249 99.1884 61.1057 99.1884 61.4114V61.8887C99.1884 61.9199 99.204 61.9355 99.2352 61.9355H100.274C100.305 61.9355 100.321 61.9574 100.321 62.001C100.321 62.1009 100.283 62.2256 100.209 62.3754H99.2445C99.2071 62.3754 99.1884 62.3941 99.1884 62.4315V64.5935C99.1884 64.9304 99.2165 65.208 99.2726 65.4264C99.2851 65.4514 99.3256 65.4795 99.3943 65.5107C99.4629 65.5418 99.5378 65.5668 99.6189 65.5855C99.7 65.6042 99.7593 65.6136 99.7967 65.6136C99.8154 65.6136 99.8279 65.651 99.8341 65.7259C99.8404 65.8008 99.8373 65.8538 99.8248 65.885L98.8234 65.8382L97.8407 65.885ZM102.684 65.885C102.665 65.8663 102.656 65.8195 102.656 65.7446C102.656 65.6573 102.665 65.6136 102.684 65.6136C102.74 65.6136 102.815 65.6042 102.909 65.5855C103.002 65.5606 103.09 65.5325 103.171 65.5013C103.258 65.4701 103.311 65.4358 103.33 65.3983C103.374 65.3297 103.395 65.0365 103.395 64.5186V60.9809C103.395 60.8 103.389 60.6409 103.377 60.5036C103.37 60.3663 103.355 60.2571 103.33 60.176C103.317 60.1386 103.268 60.1043 103.18 60.0731C103.099 60.0419 103.009 60.0169 102.909 59.9982C102.815 59.9795 102.74 59.9701 102.684 59.9701C102.659 59.9701 102.647 59.9327 102.647 59.8578C102.647 59.7767 102.659 59.7237 102.684 59.6987C102.846 59.705 103.018 59.7112 103.199 59.7174C103.386 59.7174 103.586 59.7174 103.798 59.7174L104.706 59.7081C104.887 59.7081 105.036 59.7081 105.155 59.7081C105.273 59.7018 105.364 59.6987 105.426 59.6987C106.106 59.6987 106.687 59.8391 107.167 60.1199C107.648 60.3944 108.016 60.7594 108.271 61.2149C108.527 61.6703 108.655 62.1695 108.655 62.7123C108.655 63.3113 108.524 63.8541 108.262 64.3408C108.006 64.8274 107.635 65.2112 107.148 65.4919C106.668 65.7727 106.091 65.9037 105.417 65.885L104.752 65.8663C104.565 65.8601 104.394 65.8569 104.238 65.8569C104.082 65.8507 103.941 65.8507 103.817 65.8569L102.684 65.885ZM105.567 65.4545C107.002 65.4545 107.719 64.528 107.719 62.6749C107.719 62.2007 107.635 61.7702 107.467 61.3833C107.298 60.9965 107.049 60.6877 106.718 60.4568C106.393 60.2259 105.988 60.1105 105.501 60.1105H105.454C104.781 60.1105 104.406 60.1604 104.331 60.2603C104.25 60.3663 104.21 60.5629 104.21 60.8499V64.556C104.21 64.8118 104.256 65.0489 104.35 65.2673C104.363 65.2985 104.416 65.3266 104.509 65.3515C104.603 65.3703 104.715 65.389 104.846 65.4077C104.983 65.4202 105.117 65.4327 105.249 65.4451C105.38 65.4514 105.486 65.4545 105.567 65.4545ZM110.347 65.9224C110.06 65.9224 109.823 65.8476 109.636 65.6978C109.448 65.5418 109.355 65.311 109.355 65.0053C109.355 64.6309 109.598 64.3189 110.085 64.0694C110.297 63.9633 110.506 63.8791 110.712 63.8167C110.924 63.7543 111.136 63.6825 111.348 63.6014C111.404 63.5827 111.433 63.5359 111.433 63.461V62.7591C111.433 62.5595 111.37 62.4066 111.245 62.3005C111.121 62.1882 110.971 62.1321 110.796 62.1321C110.609 62.1321 110.453 62.1976 110.328 62.3286C110.203 62.4534 110.141 62.6187 110.141 62.8246C110.141 63.043 110.013 63.1522 109.757 63.1522C109.576 63.1522 109.455 63.0929 109.392 62.9744C109.392 62.8433 109.445 62.7092 109.551 62.5719C109.664 62.4284 109.807 62.2974 109.982 62.1789C110.157 62.0603 110.347 61.9636 110.553 61.8887C110.765 61.8139 110.974 61.7764 111.18 61.7764C111.523 61.7764 111.769 61.8606 111.919 62.0291C112.069 62.1913 112.144 62.4565 112.144 62.8246V64.9865C112.144 65.1176 112.178 65.2268 112.247 65.3141C112.315 65.4015 112.409 65.4451 112.528 65.4451C112.609 65.4451 112.718 65.4015 112.855 65.3141C112.88 65.3141 112.893 65.3391 112.893 65.389C112.893 65.4701 112.877 65.5356 112.846 65.5855C112.59 65.8039 112.372 65.9131 112.191 65.9131C112.047 65.9131 111.91 65.8538 111.779 65.7353C111.648 65.6167 111.557 65.4919 111.507 65.3609C111.476 65.3859 111.436 65.4202 111.386 65.4639C111.342 65.5013 111.305 65.5325 111.273 65.5574C111.142 65.6573 110.999 65.7446 110.843 65.8195C110.693 65.8881 110.528 65.9224 110.347 65.9224ZM110.703 65.389C110.877 65.389 111.043 65.3391 111.199 65.2392C111.355 65.1394 111.433 65.0333 111.433 64.921V63.9571C111.27 64.0195 111.114 64.0756 110.965 64.1255C110.821 64.1754 110.706 64.216 110.618 64.2472C110.506 64.2909 110.397 64.3689 110.291 64.4812C110.191 64.5935 110.141 64.7214 110.141 64.8649C110.141 65.0521 110.197 65.1862 110.309 65.2673C110.428 65.3484 110.559 65.389 110.703 65.389ZM113.976 67.9814C113.845 67.9814 113.748 67.9409 113.686 67.8598C113.623 67.7786 113.592 67.6975 113.592 67.6164C113.592 67.4854 113.636 67.3856 113.723 67.3169C114.241 67.3169 114.584 67.0486 114.753 66.5121C114.784 66.4185 114.821 66.3062 114.865 66.1751C114.909 66.0441 114.943 65.938 114.968 65.8569L113.63 62.5813C113.598 62.5064 113.567 62.444 113.536 62.3941C113.505 62.338 113.474 62.2943 113.442 62.2631C113.386 62.2069 113.299 62.1601 113.18 62.1227C113.068 62.0853 112.978 62.0665 112.909 62.0665C112.884 62.0665 112.872 62.026 112.872 61.9449C112.872 61.87 112.884 61.8201 112.909 61.7951C113.077 61.8014 113.243 61.8107 113.405 61.8232C113.573 61.8295 113.745 61.8326 113.92 61.8326C114.119 61.8326 114.291 61.8295 114.435 61.8232C114.578 61.8107 114.709 61.8014 114.828 61.7951C114.84 61.8451 114.846 61.8918 114.846 61.9355C114.846 62.0229 114.834 62.0665 114.809 62.0665C114.784 62.0665 114.737 62.0759 114.668 62.0946C114.606 62.1133 114.544 62.1383 114.481 62.1695C114.419 62.1945 114.381 62.2256 114.369 62.2631V62.2818C114.369 62.3879 114.703 63.2021 115.37 64.7245L116.082 62.6749C116.125 62.5501 116.147 62.4534 116.147 62.3848C116.147 62.2912 116.097 62.2163 115.997 62.1601C115.904 62.0977 115.776 62.0665 115.614 62.0665C115.589 62.0665 115.576 62.026 115.576 61.9449C115.576 61.87 115.589 61.8201 115.614 61.7951C115.695 61.8014 115.817 61.8107 115.979 61.8232C116.141 61.8357 116.297 61.8419 116.447 61.8419C116.584 61.8419 116.734 61.8357 116.896 61.8232C117.058 61.8107 117.18 61.8014 117.261 61.7951C117.273 61.8451 117.28 61.8918 117.28 61.9355C117.28 62.0229 117.267 62.0665 117.242 62.0665C117.161 62.0665 117.052 62.0946 116.915 62.1508C116.777 62.2069 116.684 62.2974 116.634 62.4222L114.959 66.9426C114.815 67.3294 114.653 67.5977 114.472 67.7474C114.291 67.9034 114.126 67.9814 113.976 67.9814ZM119.615 65.8569C119.59 65.8569 119.565 65.8226 119.54 65.754C119.521 65.6791 119.512 65.6198 119.512 65.5762C119.967 65.1145 120.382 64.6403 120.757 64.1536C121.131 63.6669 121.431 63.199 121.655 62.7498C121.88 62.2943 121.992 61.8981 121.992 61.5612C121.992 61.2242 121.908 60.9653 121.739 60.7844C121.571 60.5972 121.349 60.5036 121.075 60.5036C120.557 60.5036 120.142 60.7625 119.83 61.2804C119.793 61.2804 119.752 61.2617 119.708 61.2242C119.671 61.1806 119.652 61.1494 119.652 61.1306C119.671 61.0558 119.724 60.9497 119.811 60.8124C119.905 60.6689 120.027 60.5254 120.176 60.3819C120.332 60.2322 120.516 60.1074 120.729 60.0076C120.941 59.9015 121.181 59.8485 121.449 59.8485C121.73 59.8485 121.97 59.9202 122.17 60.0637C122.37 60.2072 122.522 60.3975 122.629 60.6346C122.741 60.8655 122.797 61.1119 122.797 61.374C122.797 61.6672 122.738 61.9636 122.619 62.2631C122.501 62.5563 122.345 62.8433 122.151 63.1241C121.964 63.4049 121.761 63.6732 121.543 63.929C121.324 64.1786 121.112 64.4063 120.906 64.6122C120.701 64.8118 120.526 64.9803 120.382 65.1176C120.364 65.1488 120.37 65.1706 120.401 65.1831H122.207C122.382 65.1831 122.507 65.1332 122.582 65.0333C122.663 64.9335 122.744 64.7432 122.825 64.4624C122.856 64.3938 122.9 64.3595 122.956 64.3595C123.043 64.3595 123.1 64.372 123.125 64.3969C122.975 65.1332 122.891 65.5699 122.872 65.7072C122.866 65.807 122.803 65.8569 122.685 65.8569H119.615ZM125.902 65.885C125.49 65.885 125.131 65.7509 124.826 65.4826C124.52 65.2143 124.283 64.8524 124.114 64.3969C123.946 63.9415 123.862 63.433 123.862 62.8714C123.862 62.3036 123.946 61.7951 124.114 61.3459C124.283 60.8904 124.52 60.5286 124.826 60.2603C125.131 59.992 125.49 59.8578 125.902 59.8578C126.326 59.8578 126.688 59.992 126.988 60.2603C127.293 60.5223 127.527 60.8811 127.689 61.3365C127.858 61.7858 127.942 62.2974 127.942 62.8714C127.942 63.433 127.858 63.9415 127.689 64.3969C127.521 64.8524 127.284 65.2143 126.978 65.4826C126.679 65.7509 126.32 65.885 125.902 65.885ZM125.855 65.5294C126.123 65.5294 126.351 65.4108 126.538 65.1737C126.725 64.9366 126.869 64.6122 126.969 64.2004C127.069 63.7886 127.119 63.3269 127.119 62.8153C127.119 62.3161 127.069 61.8731 126.969 61.4863C126.869 61.0932 126.732 60.7844 126.557 60.5598C126.382 60.3289 126.18 60.2135 125.949 60.2135C125.699 60.2135 125.478 60.3289 125.284 60.5598C125.097 60.7906 124.95 61.1057 124.844 61.505C124.738 61.9043 124.685 62.3567 124.685 62.8621C124.685 63.3612 124.735 63.8136 124.835 64.2191C124.935 64.6184 125.072 64.9366 125.247 65.1737C125.428 65.4108 125.63 65.5294 125.855 65.5294ZM128.782 65.8569C128.757 65.8569 128.732 65.8226 128.707 65.754C128.689 65.6791 128.679 65.6198 128.679 65.5762C129.135 65.1145 129.55 64.6403 129.924 64.1536C130.298 63.6669 130.598 63.199 130.822 62.7498C131.047 62.2943 131.159 61.8981 131.159 61.5612C131.159 61.2242 131.075 60.9653 130.907 60.7844C130.738 60.5972 130.517 60.5036 130.242 60.5036C129.724 60.5036 129.309 60.7625 128.997 61.2804C128.96 61.2804 128.919 61.2617 128.876 61.2242C128.838 61.1806 128.82 61.1494 128.82 61.1306C128.838 61.0558 128.891 60.9497 128.979 60.8124C129.072 60.6689 129.194 60.5254 129.344 60.3819C129.5 60.2322 129.684 60.1074 129.896 60.0076C130.108 59.9015 130.348 59.8485 130.617 59.8485C130.897 59.8485 131.138 59.9202 131.337 60.0637C131.537 60.2072 131.69 60.3975 131.796 60.6346C131.908 60.8655 131.964 61.1119 131.964 61.374C131.964 61.6672 131.905 61.9636 131.786 62.2631C131.668 62.5563 131.512 62.8433 131.319 63.1241C131.131 63.4049 130.929 63.6732 130.71 63.929C130.492 64.1786 130.28 64.4063 130.074 64.6122C129.868 64.8118 129.693 64.9803 129.55 65.1176C129.531 65.1488 129.537 65.1706 129.568 65.1831H131.375C131.549 65.1831 131.674 65.1332 131.749 65.0333C131.83 64.9335 131.911 64.7432 131.992 64.4624C132.024 64.3938 132.067 64.3595 132.123 64.3595C132.211 64.3595 132.267 64.372 132.292 64.3969C132.142 65.1332 132.058 65.5699 132.039 65.7072C132.033 65.807 131.971 65.8569 131.852 65.8569H128.782ZM134.854 65.9131C134.511 65.9131 134.202 65.8195 133.927 65.6323C133.659 65.4451 133.447 65.1987 133.291 64.893C133.141 64.5872 133.066 64.2597 133.066 63.9103C133.066 63.4236 133.157 62.9712 133.338 62.5532C133.519 62.1289 133.765 61.7421 134.077 61.3927C134.389 61.0371 134.745 60.7251 135.144 60.4568C135.543 60.1885 135.961 59.9701 136.398 59.8017C136.436 59.8017 136.479 59.836 136.529 59.9046C136.585 59.9733 136.613 60.0232 136.613 60.0544C135.983 60.3289 135.447 60.6627 135.004 61.0558C134.567 61.4426 134.264 61.9449 134.096 62.5626C134.09 62.625 134.093 62.6562 134.105 62.6562L134.133 62.6374C134.196 62.5875 134.289 62.5376 134.414 62.4877C134.539 62.4315 134.673 62.3848 134.817 62.3473C134.966 62.3099 135.104 62.2912 135.228 62.2912C135.522 62.2912 135.784 62.3785 136.014 62.5532C136.245 62.7217 136.429 62.9401 136.567 63.2083C136.704 63.4704 136.773 63.7449 136.773 64.0319C136.773 64.3751 136.682 64.6902 136.501 64.9772C136.326 65.2642 136.092 65.4919 135.799 65.6604C135.506 65.8289 135.191 65.9131 134.854 65.9131ZM134.966 65.5481C135.241 65.5481 135.481 65.4295 135.687 65.1924C135.893 64.9491 135.996 64.6278 135.996 64.2285C135.996 63.8042 135.893 63.4548 135.687 63.1803C135.487 62.9057 135.191 62.7685 134.798 62.7685C134.629 62.7685 134.467 62.8153 134.311 62.9089C134.155 62.9962 134.055 63.0898 134.012 63.1896C133.931 63.383 133.884 63.617 133.871 63.8915C133.871 64.1786 133.918 64.45 134.012 64.7058C134.111 64.9554 134.242 65.1581 134.405 65.3141C134.573 65.4701 134.76 65.5481 134.966 65.5481Z" fill="white"/>
</svg>
