<svg width="56" height="56" viewBox="0 0 56 56" fill="none" xmlns="http://www.w3.org/2000/svg">
<circle cx="28" cy="28" r="28" fill="#FBF6F3"/>
<circle cx="27.9999" cy="27.9999" r="25.6667" fill="#345F00"/>
<circle cx="27.9999" cy="27.9999" r="23.9167" fill="#FBF6F3"/>
<path d="M16.5747 36.0747C16.5249 36.0249 16.5 35.8754 16.5 35.6263C16.5 35.4104 16.5249 35.3025 16.5747 35.3025C16.7408 35.3025 16.9401 35.2776 17.1726 35.2278C17.4217 35.1779 17.6542 35.1198 17.8701 35.0534C18.1026 34.9703 18.2438 34.879 18.2936 34.7794C18.4099 34.5967 18.468 33.8161 18.468 32.4377V23.0213C18.468 22.5397 18.4514 22.1162 18.4182 21.7508C18.4016 21.3854 18.36 21.0948 18.2936 20.8789C18.2604 20.7793 18.1275 20.6879 17.895 20.6049C17.6791 20.5219 17.4383 20.4554 17.1726 20.4056C16.9235 20.3558 16.7242 20.3309 16.5747 20.3309C16.5083 20.3309 16.4751 20.2312 16.4751 20.0319C16.4751 19.816 16.5083 19.6749 16.5747 19.6084L19.5641 19.6583C19.8132 19.6583 20.0872 19.6583 20.3861 19.6583C20.6851 19.6417 21.0006 19.6251 21.3328 19.6084C21.6649 19.5918 21.9805 19.5835 22.2794 19.5835C22.5783 19.5669 22.8441 19.5586 23.0766 19.5586C23.6246 19.5586 24.181 19.6417 24.7456 19.8077C25.3103 19.9738 25.85 20.2229 26.3648 20.5551C26.8963 20.8872 27.3198 21.3605 27.6353 21.975C27.9674 22.5895 28.1335 23.3036 28.1335 24.1174C28.1335 24.6322 28.0256 25.1802 27.8097 25.7615C27.5938 26.3428 27.2699 26.8908 26.8381 27.4056C26.423 27.9039 25.8915 28.3107 25.2438 28.6263C24.6127 28.9418 23.882 29.0996 23.0516 29.0996C22.1216 29.0996 21.4822 28.8671 21.1335 28.4021C21.0338 28.2858 21.0089 28.0949 21.0587 27.8291C21.092 27.7461 21.1169 27.7212 21.1335 27.7544C21.6483 27.9371 22.2047 28.0284 22.8025 28.0284C23.3672 28.0284 23.8737 27.8707 24.3221 27.5551C24.7871 27.223 25.1525 26.7912 25.4182 26.2597C25.7005 25.7117 25.8417 25.1221 25.8417 24.491C25.8417 23.3119 25.5843 22.3819 25.0694 21.701C24.5546 21.0035 23.7575 20.6547 22.678 20.6547C21.914 20.6547 21.3328 20.7128 20.9342 20.8291C20.7847 20.8457 20.6934 21.1031 20.6602 21.6013C20.6436 22.0996 20.6353 22.7556 20.6353 23.5693V32.4626C20.6353 33.5587 20.7017 34.2811 20.8345 34.6299C20.901 34.7627 21.0587 34.8873 21.3079 35.0036C21.5736 35.1198 21.8559 35.2111 22.1548 35.2776C22.4538 35.3274 22.6697 35.3523 22.8025 35.3523C22.869 35.3523 22.9022 35.4686 22.9022 35.7011C22.9022 35.8173 22.8856 35.9419 22.8524 36.0747C22.022 36.0415 21.3328 36.0166 20.7847 36C20.2533 35.9668 19.863 35.9502 19.6139 35.9502L16.5747 36.0747ZM34.4181 36.2491C34.0195 36.2491 33.596 36.2159 33.1476 36.1495C32.6992 36.0996 32.3256 36.0415 32.0266 35.9751C31.4122 35.8588 30.9638 35.7675 30.6814 35.7011C30.4157 35.618 30.1666 35.5599 29.9341 35.5267C29.7182 34.497 29.5604 33.6583 29.4608 33.0107C29.3611 32.3464 29.3113 31.8647 29.3113 31.5658C29.3113 31.4662 29.4442 31.4163 29.7099 31.4163C30.0088 31.4163 30.2164 31.4911 30.3327 31.6405C30.9139 34.032 32.2924 35.2278 34.4679 35.2278C35.2983 35.2278 36.0041 34.9786 36.5854 34.4804C37.1666 33.9822 37.4573 33.2764 37.4573 32.363C37.4573 32.064 37.3908 31.6987 37.258 31.2669C37.1417 30.8351 36.8677 30.4614 36.4359 30.1459C36.1038 29.8968 35.8297 29.7141 35.6139 29.5978C35.398 29.465 35.1821 29.3487 34.9662 29.2491C34.7503 29.1328 34.4762 28.975 34.1441 28.7758L33.1476 28.1779C32.6328 27.8623 32.118 27.5053 31.6032 27.1067C31.0883 26.6915 30.6565 26.2099 30.3078 25.6619C29.9756 25.1138 29.8095 24.491 29.8095 23.7935C29.8095 22.9133 30.0337 22.1494 30.4821 21.5017C30.9472 20.8374 31.545 20.3226 32.2758 19.9572C33.0231 19.5918 33.8286 19.4092 34.6921 19.4092C35.0575 19.4092 35.398 19.4341 35.7135 19.4839C36.0456 19.5171 36.3197 19.5586 36.5356 19.6084C37.0338 19.7247 37.3825 19.816 37.5818 19.8825C37.7977 19.9489 38.0884 20.0236 38.4537 20.1067C38.653 20.9703 38.7527 22.1577 38.7527 23.669C38.7527 23.7852 38.6696 23.8433 38.5035 23.8433C38.0884 23.8433 37.8725 23.7603 37.8559 23.5942C37.7728 23.096 37.5901 22.6061 37.3078 22.1245C37.0255 21.6429 36.6435 21.2443 36.1619 20.9287C35.6803 20.5966 35.1073 20.4305 34.443 20.4305C33.7621 20.4305 33.2307 20.5634 32.8487 20.8291C32.4667 21.0782 32.1927 21.4021 32.0266 21.8006C31.8772 22.1826 31.8024 22.5895 31.8024 23.0213C31.8024 23.4365 31.9021 23.8516 32.1014 24.2668C32.3007 24.682 32.5913 25.0308 32.9733 25.3131C33.4881 25.6951 34.0029 26.0521 34.5178 26.3843C35.0492 26.7164 35.5972 27.0569 36.1619 27.4056C36.6933 27.7378 37.2248 28.1115 37.7562 28.5266C38.2877 28.9252 38.7277 29.3819 39.0765 29.8968C39.4419 30.4116 39.6246 31.0095 39.6246 31.6904C39.6246 32.5706 39.3837 33.3594 38.9021 34.0569C38.4205 34.7378 37.7811 35.2776 36.984 35.6762C36.2034 36.0581 35.3481 36.2491 34.4181 36.2491Z" fill="#345F00"/>
</svg>
